# xmcd
#
# Track frame offsets: 
#        150
#        26890
#        47468
#        68856
#        90583
#        113225
#        134968
#        154462
#        176647
#        198269
#        222778
#        244962
#
# Disc length: 3560 seconds
#
# Revision: 0
# Processed by: cddbd v1.5.2PL0 Copyright (c) Steve Scherf et al.
# Submitted via: ExactAudioCopy v1.0b1
#
DISCID=b30de60c
DTITLE=侃侃 - 时光倒流
DYEAR=2012
DGENRE=Pop
TTITLE0=寂静的天空
TTITLE1=南飞雁
TTITLE2=一江水
TTITLE3=我最亲爱的
TTITLE4=灞桥
TTITLE5=知道不知道
TTITLE6=梦田
TTITLE7=红蔷薇
TTITLE8=时光倒流
TTITLE9=细说往事
TTITLE10=溺爱
TTITLE11=雪莲花
EXTD=
EXTT0=
EXTT1=
EXTT2=
EXTT3=
EXTT4=
EXTT5=
EXTT6=
EXTT7=
EXTT8=
EXTT9=
EXTT10=
EXTT11=
PLAYORDER=
